<?xml version="1.0" standalone="no"?><!DOCTYPE svg PUBLIC "-//W3C//DTD SVG 1.1//EN" "http://www.w3.org/Graphics/SVG/1.1/DTD/svg11.dtd"><svg t="1620290484445" class="icon" viewBox="0 0 1024 1024" version="1.1" xmlns="http://www.w3.org/2000/svg" p-id="7497" xmlns:xlink="http://www.w3.org/1999/xlink" width="200" height="200"><defs><style type="text/css"></style></defs><path d="M755.832 716.642c-0.948-5.373-2.212-10.43-4.583-15.486-9.007-23.072-28.602-40.77-52.148-48.04-16.276-5.057-33.975-5.057-49.936 0-23.545 7.27-42.666 24.968-52.148 48.04-3.634 9.007-5.373 19.12-5.373 29.076 0 0.474 0 1.422 0.475 1.738 1.738 43.141 36.345 77.59 78.854 79.329 45.827 1.738 83.911-33.501 86.123-79.329 0-0.474 0-1.422 0.474-1.738-0.474-4.583-0.948-9.007-1.738-13.59z m-531.437 0c-0.948-5.373-2.212-10.43-4.109-15.486-9.481-23.072-28.602-40.77-52.148-48.04-8.217-2.212-16.276-3.635-24.968-4.109-8.691 0-17.224 1.423-25.442 4.109-23.545 7.27-42.666 24.968-51.674 48.04-1.738 5.056-3.16 9.955-4.108 15.486-0.948 4.583-1.423 9.007-1.423 13.116v1.738c1.739 43.141 36.346 77.59 79.329 79.329 45.827 1.738 83.911-33.502 86.123-79.329 0-0.474 0.474-1.422 0.474-1.738-0.632-4.109-1.106-8.533-2.054-13.116z m491.457-79.328c0.474 0 0.948 0.474 0.948 0.474 2.212 1.422 5.057 2.212 7.27 3.634 6.32 3.16 12.167 7.27 17.698 11.852 15.486 12.642 26.232 29.077 32.237 48.04 1.422 5.056 2.686 9.955 3.16 15.486 0.949 4.583 0.949 9.007 0.949 13.116v1.738h33.027c4.108 0 7.743-1.738 10.903-4.582 3.16-2.687 4.583-6.795 4.583-10.904v-79.803H716.01v0.949z m-484.662 4.108c-2.212 0-4.583-0.948-6.32-2.212v-0.948h-1.423c-1.738-1.739-2.687-4.109-2.687-6.795V379.259c-2.686-3.634-7.269-5.373-11.851-5.373H82.489c-3.635 0-6.795 0.949-9.482 3.16-39.98 33.976-63.051 83.912-62.103 136.534v114.726c-2.687 2.687-4.583 6.321-4.583 9.956v78.854c0.474 8.691 7.27 15.486 15.802 15.012h17.225v-1.738c0-4.583 0.474-9.007 0.948-13.116 3.16-24.968 15.803-47.565 35.398-63.526 7.743-6.32 15.802-11.852 24.968-15.486 6.795-2.687 14.064-5.057 20.859-6.795 6.795-1.423 14.064-1.739 21.333-2.213 7.27 0 14.065 0.948 21.334 2.213 7.269 1.738 14.538 4.108 21.333 6.795 9.007 3.634 17.225 9.007 24.968 15.486-0.474 0-0.948 0.474-0.948 0.474h1.738c15.486 12.642 26.232 29.077 32.237 48.04 1.422 5.057 2.212 10.43 3.16 15.486 0.475 4.583 0.949 8.692 0.949 13.116v1.738h323.792v-1.738c0-4.583 0.474-9.007 1.423-13.116 0.474-5.373 1.738-10.43 3.16-15.486 5.373-19.121 16.75-35.872 32.237-48.04 5.373-4.582 11.378-8.691 17.699-11.852H231.19v-0.948z m-37.61-147.437H42.983c4.108-34.45 19.91-66.212 45.353-89.284H193.58v89.284z m671.921 127.842h36.346l114.726-79.802v-47.566L949.728 333.59 733.077 210.647h-54.361M652.8 194.844l-21.333-26.706h-101.61l17.224 57.995-304.671 3.16v392.218h584.85V588.8L652.8 194.844z m-71.111 229.294c2.686 4.583 2.686 10.43 0 15.487-3.16 5.056-8.691 7.743-14.064 7.269h-18.647l-19.911-33.501 34.923-19.121 17.699 29.866z m-117.887-74.271c2.687-4.109 7.27-6.795 12.168-6.795h49.462c-7.269 0-13.59 3.634-17.225 9.955l-30.814 51.2-34.45-19.437 20.86-34.923z m-21.807 134.637l-24.968-41.719c-2.212-4.108-2.212-9.481 0-13.59l9.956-16.75-13.116-7.27h40.296l19.911 33.976-13.116-7.27-19.437 33.028c-3.635 5.53-3.635 13.274 0.474 19.595z m52.622 5.373h-35.871c-5.847 0-10.904-2.687-14.065-7.744-2.686-4.582-2.686-10.43 0-15.486l9.482-15.487h40.454v38.717z m8.218-119.151c4.582-7.743 9.481-15.486 9.481-15.486 1.422-2.213 3.16-4.11 5.373-5.373 7.743-4.583 17.225-2.213 21.807 5.373l7.27 11.851 13.115-7.269-19.91 33.976H499.2l13.116-7.27-9.481-15.802z m57.52 112.83c-2.686 4.108-7.269 6.795-12.167 6.795h-19.911v14.064l-20.07-33.501 19.912-33.028v14.065h39.506c7.269 0 14.064-3.635 17.698-9.482l-24.967 41.087z" p-id="7498"></path></svg>